<?xml version="1.0" encoding="UTF-8"?>
<svg id="Layer_1" xmlns="http://www.w3.org/2000/svg" version="1.1" viewBox="0 0 288 288">
  <!-- Generator: Adobe Illustrator 29.4.0, SVG Export Plug-In . SVG Version: 2.1.0 Build 152)  -->
  <defs>
    <style>
      .st0 {
        fill: #181919;
      }

      .st1 {
        fill: #cd4a9b;
      }

      .st2 {
        fill: #fff;
      }

      .st3 {
        fill: #fefefe;
      }
    </style>
  </defs>
  <path class="st2" d="M161.98.54c-1.56-.57-.39-.53.36-.54,16.62.17,96.92-.16,125.45.03,1.23,16.56,1.25,277.82-.03,287.94-22.72.13-52.29-.03-83.89.03-20.64-.1-36.16.17-42.84-.08.46-.67,3.24-1.16,6.56-2.37,30.01-9.88,56.73-29.39,75.03-55.18C302.36,146.99,260.4,28.85,162.06.57l-.08-.03Z"/>
  <path class="st1" d="M159.27.07c119.18,31.26,152.2,184.08,54.83,260.74-14.85,11.59-32,20.66-50.11,26.07-1.87.51-4.54,1.25-6.23,1,.07-.37.68-.48,1.04-.69,2.95-1.28,9.15-2.9,12.88-4.43,49.21-17.78,87.22-61.04,96.02-112.79C281.28,95.26,235.78,24.14,162.13,1.99c-3.87-1.21-5.89-2.28-2.98-1.94l.12.02Z"/>
  <path class="st1" d="M88.82-.95C54.07,9.38,22.2,30.98,1.36,61.24c-2.25,2.85-2.79,2.63-.96-.52C18.66,32.77,55.69,4.55,88.81-.97v.02Z"/>
  <path class="st1" d="M-.72,224.7c20.94,28.3,49.99,52.63,84.47,62.26,1.3.45,4.92,1.38,5,1.96-.09.19-1.24.11-3.02-.23-32.29-7.99-70.38-34.77-86.47-63.98h.02Z"/>
  <path class="st0" d="M90.48,0h-.48.48Z"/>
  <path class="st0" d="M155.76,0h-.48.48Z"/>
  <path class="st0" d="M90.48,288h-.48.48Z"/>
  <path class="st0" d="M155.76,288h-.48.48Z"/>
  <path class="st1" d="M149.56,40.51c2.38,1.23,3.46,4.26,1.68,6.49-4.41,5.03-14.07,3.13-20.23,3.34-11.79-.64-23.21,1.94-34.96,3-3.85.35-9.55.32-11.29-3.6-.75-1.74-.24-3.82,1.28-5.15,3.97-3.29,9.79-2.93,14.71-3.81,13.18-1.45,26.92-2.05,40.71-1.87,2.66.11,5.7.3,7.96,1.53l.15.08Z"/>
  <path class="st1" d="M141.41,53.93c2.72,1.3,2.72,4.84.98,6.96-3.03,4.22-18.51,8.97-22.97,5.57-5.47-4.11.27-9.13,5.04-10.44,4.87-1.4,11.87-4.05,16.8-2.16l.15.08Z"/>
  <path class="st1" d="M160.05,73.31c2.19,1.13,2.09,3.95,1.02,5.9-2.87,4.95-9.2,7.15-14.64,6.74-4.08-.33-7.57-4.86-4.3-8.37,2.62-2.92,7.09-3.4,10.78-4.25,2.54-.54,5.22-.99,7-.1l.14.07Z"/>
  <g>
    <path class="st1" d="M49.76,45.45c9.73,2.89,6.16,17.11,6.86,24.95-.04,10.23.64,20.56.03,30.86-1.29,12.69-1.88,25.33-2.83,38.02-.24,1.39-.54,5.05-.24,5.56,1.61-1.18,2.17-5.42,3.22-7.73,5.04-14.35,8.36-31.29,11.48-45.94.71-3.79,1.37-7.32,2.06-11.17,1.32-5.45.48-15.63,7.87-16.55,8.98.59,5.88,12.95,5.9,19.11-.26,8.97-1.44,17.46-1.53,26.61.08,15.6-2.71,30.87-3.58,46.48.41,7.91-1.84,18.89,1.67,25.54,4.78,5.51,16.9,5.8,23.51,8.65,3.28.87,7.32,2.98,10.37.81,5.48-6.22,7.84-15.23,11.57-22.51,8.68-17.06,16.95-34.67,27.32-50.98,6.64-10.67,11.01-16.88,23.29-20.73,3.21-1.7,5.63-4.91,9.16-6.02,6.74-2.35,10.12,5.42,9.08,11.17-1.32,14.03-7.62,26.37-11.61,39.13-3.81,10.98-7.58,21.93-11.48,32.76-2.66,8.62-4.45,18.82-6.71,27.43-5.2,20.26,13.25-21.38,14.51-23.84,4.77-10.28,9.73-20.21,15.07-30.24,5.83-9.06,10.6-21.49,19.91-27.78,5.28-3.03,11.32.24,11.15,6.24.21,7-2.52,14.09-4.37,20.68-1.92,6.84-3.38,13.95-5.81,22.33-4.84,16.25-12.03,31.45-14.52,48.39-1.14,13.9-9.65,13.23-20.87,10.13-5.44-1.9-10.12,1.4-13.05,5.81-2.35,2.87-5.03,5.87-6.25,9-1.16,2.93-2.25,6.28-5.67,7.22-8.32,1.49-17.32-2.67-25.56-3.16-12.05-1.76-24.11-3.58-36.27-5.87-8.12-1.77-16.4.77-24.46-1.37-6.36-2.19-13.49-3.59-17.2-9.21-1.59-2.97-.46-6.91,2.88-8.04,3.95-1.91,9.63,1.12,12.5-2.07,1.64-5-.7-13.44-4.06-17.24-6.62-6.92-19.29-7.71-24.53-16.27-2.69-6-1.14-13.63-.94-20.18,1.14-13.7,3.4-27.38,4.37-41.13.98-12.04,2.43-24.16,2.38-36.4-.33-10.33-.7-19.84-.11-30.17.08-4.13.15-12.3,5.36-12.28h.13ZM151.14,144.61c-1.86,1.5-3.44,5.45-4.72,7.79-3.94,8.1-6.34,13.31-10.08,20.64-3.36,7.01-6.45,15.03-9.32,21.87-1.05,3.33,1.39,5.24,3.86,2.36,2.8-3.75,3.67-8.99,5.55-13.22,1.93-4.94,4.08-10.42,5.95-15.67,2.09-5.92,4.71-12.36,6.98-17.8.54-1.47,2.23-4.96,1.81-5.97h-.03ZM67.8,147.35c-.24-.12-.55.32-.95,1.26-.4.92-.96,2.47-1.39,3.61-1.68,4.57-3.56,8.16-5.25,11.89-.62,1.31-1.13,2.33-1.82,3.55-1.34,2.61-3.71,5.68-4.38,8.39-1.09,4.51,8.94,5.5,10.85,2.5,1.53-1.96,1.52-5.92,1.91-9.51.55-5.57,1.37-11.23,1.58-16.73.05-1.3.09-4.25-.53-4.93l-.03-.02ZM165.55,152.14c-.09-.25-.37-.05-.75.46-.34.44-.74,1.21-.97,1.66-4.8,9.55-8.74,21.06-12.64,30.84-1.07,2.84-2.02,5.63-3.06,8.54-1.04,3.48-3.74,8.9-.55,11.11,1.31.37,2.4-.82,3.09-1.84.68-1.02,1.19-2.4,1.58-3.65,1.97-6.49,3.6-13.13,5.37-19.68,1.82-6.77,3.23-10.72,5.12-16.58.98-3.29,2.7-7.75,2.81-10.83v-.04ZM204.56,156.33c-.27-.06-.8.43-1.45,1.28-2.6,3.3-4.3,7.39-5.83,11.35-2.2,5.19-5.23,10.99-7.67,15.87-2.47,4.75-4.24,8.4-6.36,13.02-1.37,2.91-2.9,5.93-4.32,8.94-1.26,2.58-2.1,5.96.91,7.56,6.73,3.04,8.24-2.86,9.42-8.19,1.33-4.95,2.84-9.46,4.39-14.15,2.16-6.27,4.58-13.77,7.01-20.7,1.39-3.84,2.89-8.41,3.79-12.18.38-1.62.47-2.66.13-2.79h-.03ZM82.88,196.52c-1.37.21,1.5,1.65,2.18,2.11,7.15,4.09,13.88,7.85,21.3,11.5,1.26.49,2.53,1.08,3.68.37,1.26-1.66-1.84-4.34-3.13-5.49-6.87-5.05-15.92-7.17-23.95-8.51h-.07ZM122.13,208.83c-2.34.18-6.79,2-6.86,4.08.19,1.29,2.02,2.03,3.09,2.69,1.96,1.05,3.92,2.12,6.03,3.32,5.63,3.26,11.58,6.19,17.07,9.55,1.91,1.16,5.02,3.46,6.28.5,1.07-2.26,1.53-5.82,1-8.61-.47-2.8-3.03-4.55-5.61-5.48-3.48-1.28-7.08-2.55-10.65-3.69-3.85-1.12-7.12-2.52-10.2-2.38h-.15ZM80.36,210.13c-2.3.76.9,11.31,2.32,12.68,2.06,2.36,5.32,2.93,8.27,3.55,6.3,1.22,12.58,2.1,18.93,2.88,1.13.01,10.49,2.02,7.05-.64-5.37-3.59-11.86-5.87-17.21-8.98-4.73-2.74-9.73-5.48-14.55-8.03-1.44-.74-3.38-1.88-4.72-1.5l-.08.03Z"/>
    <path class="st2" d="M204.59,156.34c.33.13.25,1.17-.13,2.79-.9,3.78-2.4,8.34-3.79,12.18-2.45,6.97-4.91,14.57-7.06,20.85-1.54,4.64-3.03,9.12-4.34,14-1.18,5.31-2.7,11.24-9.42,8.19-3.65-1.99-1.63-6.22-.19-9.09,3.92-7.88,6.04-13,9.95-20.43,2.62-5.25,5.44-10.63,7.67-15.87,1.54-3.99,3.22-8.03,5.83-11.35.65-.85,1.18-1.34,1.45-1.28h.03Z"/>
    <path class="st2" d="M165.56,152.18c-.23,3.96-2.55,9.6-3.52,13.08-1.68,4.88-2.78,8.39-4.41,14.33-1.77,6.54-3.4,13.19-5.37,19.68-.39,1.25-.91,2.63-1.58,3.65-.69,1.03-1.77,2.21-3.09,1.84-4.31-2.03,2.46-15.42,3.47-19.29,3.98-10.01,7.95-21.61,12.83-31.32.28-.53.57-1.07.91-1.54.38-.51.66-.72.75-.46v.04Z"/>
    <path class="st2" d="M67.83,147.37c.61.7.57,3.62.53,4.93-.21,5.5-1.03,11.16-1.58,16.73-.39,3.59-.39,7.55-1.91,9.51-1.92,3.01-11.94,1.99-10.85-2.5.5-2.27,2.54-5.01,3.73-7.26,1.3-2.18,2.35-4.4,3.41-6.7,1.35-2.9,3.46-7.3,4.76-11.1.53-1.14,1.04-3.51,1.88-3.64l.03.02Z"/>
    <path class="st2" d="M151.16,144.61c.4,1.06-1.26,4.49-1.81,5.97-2.26,5.44-4.89,11.88-6.98,17.8-1.8,5.05-3.93,10.52-5.77,15.21-1.96,4.38-2.85,9.78-5.73,13.68-2.14,2.56-4.71,1.4-3.99-1.87.32-1.37.99-2.61,1.54-3.9,1.12-2.61,1.99-4.81,3.18-7.72,2.76-7.09,6.27-13.78,9.58-20.47,1.47-3.19,3.96-8.35,6.11-12.67.99-1.79,2.47-5.12,3.85-6.04h.03Z"/>
    <path class="st2" d="M82.66,197.03c-1.05-1.37,4.7.37,5.53.49,6.95,1.68,15.19,3.72,20.48,9.19.87,1.05,2.47,2.91,1.21,3.9-1.48.68-3.35-.4-4.83-1.08-2.88-1.42-5.81-3.08-8.24-4.35-4.09-2.3-10.12-5.28-14.1-8.1l-.06-.06Z"/>
  </g>
  <g>
    <path class="st2" d="M89.06.47C92.6-.34,97.92.12,102.17,0c14.89.02,32.48-.02,46.65,0,6.92-.42,11.42,1.39,17.64,3.32,110.83,35.01,138.57,182.63,47.78,255.53-16.23,13.13-36.04,23.01-56.56,28.42-3.26.81-4.93.73-9.22.72-14.22.05-39.19-.04-51.36,0-4.18,0-5.8.05-8.89-.66-33.13-7.87-63.18-28.85-83.16-56.33-1.94-2.99-4.97-6.22-5.09-9.04.09-15.54-.08-118.24,0-153.54.09-2.11-.32-3.17.93-5.26C20.7,32.34,53.18,8.81,88.94.49l.12-.02ZM149.42,40.43c-2.26-1.23-5.3-1.41-7.96-1.53-13.79-.17-27.53.43-40.71,1.88-4.93.88-10.75.52-14.72,3.81-3.47,3.12-.89,7.89,3.44,8.53,2.05.44,4.4.41,6.56.22,11.75-1.06,23.17-3.63,34.96-3,6.19-.21,15.8,1.7,20.23-3.34,1.77-2.23.71-5.26-1.68-6.49l-.15-.08ZM49.63,45.44c-7.77-.49-4.95,21.44-5.74,26.79,1.23,18.3-.4,36.91-2.15,55.08-.98,12.74-3.09,25.42-4.11,38.12-.22,6.55-1.75,14.18.93,20.18,5.24,8.56,17.91,9.35,24.53,16.27,3.28,3.67,5.75,12.37,4.06,17.23-2.87,3.19-8.56.15-12.5,2.07-3.31,1.09-4.5,5.09-2.88,8.04,3.7,5.63,10.86,7,17.2,9.21,8.06,2.13,16.34-.41,24.46,1.36,12.16,2.29,24.22,4.11,36.27,5.86,8.24.5,17.24,4.65,25.56,3.16,3.42-.95,4.51-4.28,5.67-7.22,1.22-3.13,3.9-6.13,6.25-9,2.91-4.44,7.64-7.67,13.05-5.81,11.06,3.03,19.79,3.86,20.87-10.13,2.48-16.94,9.68-32.14,14.52-48.39,2.44-8.39,3.88-15.49,5.81-22.33,1.85-6.59,4.59-13.69,4.37-20.68.11-5.98-5.81-9.28-11.15-6.24-9.27,6.26-14.04,18.63-19.83,27.64-4.67,8.65-9.05,17.62-13.28,26.34-1.25,2.38-21.73,48.95-16.37,27.89,2.26-8.61,4.04-18.81,6.71-27.43,4.22-11.75,8.36-23.75,12.47-35.65,3.87-12.16,10.21-24.67,10.69-38.24.19-10.9-8.61-12-15.38-5.15-3.68,3.3-8.18,3.48-12.61,6.22-7.75,5.6-12.29,14.76-17.43,22.59-8.56,14.77-16.14,30.17-23.7,45.29-2.58,5.87-5.37,12.14-8.3,17.91-.81,1.58-1.79,3.31-3.2,4.31-3.06,2.05-7.02-.03-10.27-.89-6.43-2.81-19.72-3.27-23.77-9.03-1.32-2.14-1.57-5.01-1.56-7.56.07-5.78-.1-11.5.15-17.59,1.27-17.72,3.88-35.15,3.78-52.9.5-7.24,1.09-13.13,1.33-20.2-.05-6.21,3.1-18.49-5.9-19.11-7.4.91-6.53,11.13-7.87,16.55-.69,3.84-1.35,7.38-2.06,11.17-3.11,14.67-6.43,31.58-11.48,45.94-1.05,2.3-1.67,6.55-3.22,7.73-.18-.5-.02-4.17.24-5.56.95-12.69,1.54-25.32,2.84-38.02.61-10.3-.07-20.63-.03-30.86-.74-7.89,2.9-22.05-6.85-24.95h-.13ZM141.26,53.85c-4.43-2.14-17.82,1.69-21.65,4.63-2.71,2.02-3.37,6.12-.19,7.97,4.44,3.4,19.93-1.34,22.97-5.57,1.74-2.11,1.74-5.66-.98-6.96l-.15-.08ZM159.91,73.24c-1.78-.89-4.46-.44-7,.1-3.69.84-8.16,1.32-10.78,4.24-3.26,3.5.21,8.04,4.3,8.37,5.43.41,11.76-1.79,14.64-6.74,1.07-1.95,1.18-4.77-1.02-5.9l-.14-.07Z"/>
    <path class="st3" d="M84.02.01C52.16,9.55,23.53,29.64,3.94,56.76c-.99,1.13-3.6,5.64-4.28,4.37-.55-4.16-.05-8.32-.21-15.26C-.37,32.08-.92,13.05-.34.18,0-.6.87-.47,1.71-.52c10.27-.01,68.62,0,81.31,0,.47,0,.86,0,1.14.03.67.05.66.18-.06.48l-.07.03Z"/>
    <path class="st3" d="M84.09,288.02c1.48.59-.46.48-1.07.51-12.69,0-71.04,0-81.31,0-.85-.03-1.71.07-2.04-.7-.58-12.88-.03-31.9-.21-45.7.16-6.94-.32-11.07.21-15.26.62-1.35,3.41,3.4,4.28,4.37,19.58,27.13,48.22,47.2,80.08,56.75l.07.03Z"/>
    <path class="st2" d="M122.28,208.82c3.08-.14,6.36,1.26,10.2,2.38,3.56,1.13,7.17,2.4,10.65,3.69,6.52,2.02,6.68,8.05,4.9,13.42-1.14,3.51-3.82,1.92-6.12.45-7.39-4.41-15.43-8.58-22.92-12.81-1.2-.69-2.88-1.43-3.55-2.49-1.09-2.33,4.45-4.47,6.68-4.62h.15Z"/>
    <path class="st2" d="M80.45,210.1c1.35-.38,3.28.76,4.72,1.5,5.61,2.9,11.24,6.2,16.79,9.23,1.51,1.11,17.1,7.45,15.57,8.98-2.14.49-5.32-.38-7.65-.57-7.26-.93-14.54-1.85-21.71-3.49-2.28-.61-4.78-1.6-5.98-3.61-1.09-1.75-4.08-11.11-1.84-12.01l.08-.03Z"/>
  </g>
</svg>